HIERARCHY
ROOT Hips
{
	OFFSET 0.000000 0.000000 0.000000
	CHANNELS 6 Xposition Yposition Zposition Zrotation Yrotation Xrotation 
	JOINT LHipJoint
	{
		OFFSET 0.000000 0.000000 0.000000
		CHANNELS 3 Zrotation Yrotation Xrotation
		JOINT LeftUpLeg
		{
			OFFSET 1.363060 -1.794630 0.839290
			CHANNELS 3 Zrotation Yrotation Xrotation
			JOINT LeftLeg
			{
				OFFSET 2.448110 -6.726130 0.000000
				CHANNELS 3 Zrotation Yrotation Xrotation
				JOINT LeftFoot
				{
					OFFSET 2.562200 -7.039590 0.000000
					CHANNELS 3 Zrotation Yrotation Xrotation
					JOINT LeftToeBase
					{
						OFFSET 0.157640 -0.433110 2.322550
						CHANNELS 3 Zrotation Yrotation Xrotation
						End Site
						{
							OFFSET 0.000000 0.000000 0.000000
						}
					}
				}
			}
		}
	}
	JOINT RHipJoint
	{
		OFFSET 0.000000 0.000000 0.000000
		CHANNELS 3 Zrotation Yrotation Xrotation
		JOINT RightUpLeg
		{
			OFFSET -1.305520 -1.794630 0.839290
			CHANNELS 3 Zrotation Yrotation Xrotation
			JOINT RightLeg
			{
				OFFSET -2.542530 -6.985550 0.000000
				CHANNELS 3 Zrotation Yrotation Xrotation
				JOINT RightFoot
				{
					OFFSET -2.568260 -7.056230 0.000000
					CHANNELS 3 Zrotation Yrotation Xrotation
					JOINT RightToeBase
					{
						OFFSET -0.164730 -0.452590 2.363150
						CHANNELS 3 Zrotation Yrotation Xrotation
						End Site
						{
							OFFSET 0.000000 0.000000 0.000000
						}
					}
				}
			}
		}
	}
}
MOTION
Frames: 14
Frame Time: 0.008333
-0.856094 17.398618 1.023298 -26.161206 -72.249846 40.881491 -10.289466 -3.893277 -3.530081 -1.685230 -15.294285 -15.536514 -0.604100 0.175901 13.753541 1.141995 6.993628 -4.140942 0.473600 -0.000000 -36.823600 6.373440 4.334163 2.883638 -5.678536 -5.497231 -91.467175 2.549583 -0.451849 7.543568 -0.593020 -2.813168 13.993038 -1.844300 0.000000 -74.087500
-0.858203 17.397633 1.018431 -25.396725 -72.399007 40.307014 -10.239656 -3.880440 -3.557785 -1.986241 -15.250130 -15.633386 -0.637504 0.150990 13.571427 1.131191 6.959571 -4.022649 0.489500 0.000000 -36.777600 6.396213 4.400702 3.028431 -6.008793 -5.634092 -90.043398 2.502367 0.128135 3.150267 -0.473643 -2.405965 14.324042 -1.695700 0.000001 -74.627400
-0.861150 17.396097 1.013372 -24.583552 -72.516721 39.612862 -10.189560 -3.858415 -3.563717 -2.299895 -15.249563 -15.655985 -0.671362 0.126953 13.387552 1.123854 6.949757 -3.915660 0.505600 -0.000000 -36.710500 6.399780 4.485129 3.098004 -6.264056 -5.804527 -88.492148 2.431115 0.646704 -0.997271 -0.355068 -1.985714 14.670056 -1.531700 -0.000000 -75.020201
-0.864966 17.394008 1.008100 -23.714819 -72.605960 38.793307 -10.139627 -3.828016 -3.550260 -2.629306 -15.295748 -15.598247 -0.705719 0.103784 13.199723 1.120393 6.967626 -3.819192 0.522400 0.000000 -36.624800 6.386397 4.581697 3.096978 -6.415795 -6.002829 -86.868930 2.351512 1.093318 -4.811365 -0.236804 -1.537995 14.997095 -1.347300 0.000001 -75.370400
-0.869647 17.391251 1.002827 -22.816124 -72.668277 37.883800 -10.092861 -3.790936 -3.519353 -2.964472 -15.372169 -15.485778 -0.740464 0.082083 13.027959 1.118748 6.995550 -3.742366 0.537300 -0.000000 -36.521600 6.360321 4.681718 3.039342 -6.425690 -6.219822 -85.256931 2.282285 1.464246 -8.196343 -0.117249 -1.043947 15.261002 -1.136200 0.000000 -75.605300
-0.874832 17.388047 0.997395 -21.881320 -72.739750 36.911962 -10.050643 -3.754588 -3.497245 -3.313230 -15.480367 -15.311593 -0.775236 0.062065 12.847774 1.120656 7.048536 -3.674085 0.552900 -0.000000 -36.414300 6.340588 4.746428 2.991426 -6.408075 -6.406046 -84.346175 2.264481 1.661892 -9.911266 0.012309 -0.492975 14.753468 -0.912300 0.000000 -75.927400
-0.880767 17.384241 0.992225 -20.939359 -72.869310 36.002500 -10.022538 -3.731465 -3.523146 -3.655527 -15.587482 -15.164783 -0.808888 0.045424 12.691300 1.122294 7.091768 -3.632441 0.563700 0.000000 -36.308500 6.365419 4.695648 3.098189 -6.592698 -6.475325 -85.588424 2.389774 1.480215 -7.411584 0.148754 0.149727 12.029266 -0.697700 0.000001 -76.111000
-0.887533 17.379916 0.987375 -20.074968 -72.976417 35.121188 -9.998471 -3.701124 -3.530057 -3.975851 -15.663394 -15.014889 -0.842062 0.030938 12.582171 1.120963 7.105940 -3.618860 0.568100 -0.000000 -36.213200 6.382051 4.657321 3.149464 -6.605714 -6.538729 -86.407039 2.507235 1.319183 -5.326571 0.224097 0.665696 9.739848 -0.527700 -0.000000 -76.213100
-0.894755 17.375259 0.982708 -19.297486 -73.073187 34.274333 -9.977168 -3.665154 -3.524525 -4.279871 -15.703802 -14.842621 -0.874915 0.018599 12.501694 1.117716 7.101131 -3.623901 0.568100 -0.000000 -36.135800 6.393728 4.630666 3.148544 -6.501189 -6.580684 -86.773435 2.601475 1.182485 -3.661578 0.253710 0.978580 7.897379 -0.435100 0.000001 -76.347299
-0.902675 17.370180 0.978471 -18.633851 -73.159653 33.504399 -9.960932 -3.624075 -3.504452 -4.554901 -15.690274 -14.688919 -0.907267 0.008733 12.475437 1.110099 7.055991 -3.657935 0.560500 -0.000000 -36.077500 6.406679 4.611351 3.108304 -6.297174 -6.595903 -86.689372 2.666499 1.077736 -2.454491 0.256153 1.051431 6.546354 -0.435100 0.000000 -76.424601
-0.911385 17.364774 0.974685 -18.082622 -73.239787 32.814706 -9.949641 -3.577906 -3.470228 -4.801603 -15.623706 -14.556319 -0.938986 0.001233 12.501955 1.098499 6.973310 -3.719894 0.545900 0.000000 -36.038000 6.424684 4.597230 3.031901 -6.000974 -6.585544 -86.158803 2.700047 1.007437 -1.713212 0.245457 0.887143 5.714522 -0.524900 0.000000 -76.503300
-0.920530 17.359183 0.971306 -17.641355 -73.320834 32.194280 -9.942495 -3.527355 -3.426286 -5.026430 -15.508264 -14.420553 -0.970123 -0.003820 12.561984 1.084235 6.864960 -3.801428 0.526400 0.000000 -36.014700 6.448718 4.587941 2.916223 -5.628994 -6.550687 -85.184301 2.700193 0.969179 -1.410152 0.225742 0.499076 5.400865 -0.697800 0.000000 -76.594600
-0.930356 17.353473 0.968347 -17.302737 -73.402969 31.639623 -9.939492 -3.471563 -3.370596 -5.229322 -15.350625 -14.283381 -1.000380 -0.006580 12.654869 1.067872 6.734800 -3.902254 0.502800 0.000001 -36.004600 6.480608 4.581174 2.760218 -5.159388 -6.504885 -83.792276 2.675357 0.961312 -1.534642 0.195509 -0.052896 5.624638 -0.927800 0.000000 -76.691000
-0.940861 17.347716 0.965763 -17.055424 -73.486722 31.135924 -9.940296 -3.409939 -3.302604 -5.413911 -15.159935 -14.134767 -1.029681 -0.007176 12.771764 1.050344 6.590535 -4.019029 0.476200 -0.000000 -36.001500 6.520699 4.575468 2.560266 -4.576561 -6.466627 -82.012212 2.634870 0.979283 -2.053447 0.148116 -0.698981 6.378560 -1.186600 0.000000 -76.790401
